# xmcd
#
# Track frame offsets: 
#        150
#        16144
#        35427
#        49886
#        68351
#        82624
#        103167
#        116552
#        138560
#        160507
#        184753
#        207226
#
# Disc length: 2978 seconds
#
# Revision: 0
# Processed by: cddbd v1.5.2PL0 Copyright (c) Steve Scherf et al.
# Submitted via: ExactAudioCopyFreeDBPlugin 1.0
#
DISCID=910ba00c
DTITLE=Dan Clanton - So Far, So Good!
DYEAR=1999
DGENRE=Country
TTITLE0=So Far So Good
TTITLE1=California Bound
TTITLE2=The Kid By The Campfire
TTITLE3=Mary Mary
TTITLE4=The Ballad of Billy
TTITLE5=Hard Way to Go
TTITLE6=Creative Leisure
TTITLE7=I Remember You With Me
TTITLE8=Hot Little Alabama Town
TTITLE9=This Blue's For You
TTITLE10=Twenty-Eight Silver Dollars
TTITLE11=You and Me Again
EXTD=
EXTT0=
EXTT1=
EXTT2=
EXTT3=
EXTT4=
EXTT5=
EXTT6=
EXTT7=
EXTT8=
EXTT9=
EXTT10=
EXTT11=
PLAYORDER=
